<svg xmlns="http://www.w3.org/2000/svg" viewBox="0 0 274.84 134.31"><defs><style>.cls-1,.cls-2,.cls-3,.cls-4{stroke:#000;stroke-linecap:round;}.cls-1,.cls-3,.cls-4{stroke-miterlimit:10;}.cls-1,.cls-2,.cls-3{stroke-width:14px;}.cls-2,.cls-3,.cls-4{fill:none;}.cls-2{stroke-linejoin:round;}.cls-4{stroke-width:10px;}.cls-5{fill:#820000;}.cls-6{fill:#8f1b1b;}.cls-7{fill:#fff;}</style></defs><title>자산 1</title><g id="레이어_2" data-name="레이어 2"><g id="레이어_1-2" data-name="레이어 1"><path d="M61.57,75.09a10.53,10.53,0,0,1-2,2.63,13.32,13.32,0,0,1-2.7,2,7.7,7.7,0,0,1-2.85,1,25.63,25.63,0,0,1-6.6.3,59.72,59.72,0,0,0-6.45-.3q-8.25,0-16.42-.15T8.25,80a5.93,5.93,0,0,1-4-1.73A11.23,11.23,0,0,1,1.8,74.49,18.7,18.7,0,0,1,.6,69.76a36.93,36.93,0,0,1-.3-4.43q0-3.15-.08-7t-.15-8q-.08-4-.07-8t.15-7.12A38.93,38.93,0,0,0,.22,31a44.5,44.5,0,0,1,.08-4.5,42.29,42.29,0,0,1,.52-4.42A12.3,12.3,0,0,1,2.1,18.24a8.25,8.25,0,0,1,3-3.15,9.62,9.62,0,0,1,4.05-1.42,9,9,0,0,1,4.12.52,6.3,6.3,0,0,1,3.23,2.7A18.6,18.6,0,0,1,19,26.26q.07,5.33-.07,10.13H45.45a39.94,39.94,0,0,0,.15-5.85q-.15-2.55-.15-5.4a23.56,23.56,0,0,1,.83-5.78,7.68,7.68,0,0,1,3.07-4.72,7.89,7.89,0,0,1,4.5-1.28,7.2,7.2,0,0,1,4.5,1.13A7.19,7.19,0,0,1,60.82,18a22.65,22.65,0,0,1,1.13,4.72,35.61,35.61,0,0,1,.45,5.85v43.5A6.19,6.19,0,0,1,61.57,75.09ZM2.4,110.34a16.37,16.37,0,0,1,4-11.25A27.09,27.09,0,0,1,17.1,92,64.29,64.29,0,0,1,33,88.29a171.45,171.45,0,0,1,19.5-1.05q10.35,0,19.5.75a60.87,60.87,0,0,1,15.9,3.22,25.85,25.85,0,0,1,10.73,7q4,4.5,4,12.15t-4,12a25.84,25.84,0,0,1-10.73,7,62.78,62.78,0,0,1-15.9,3.3q-9.15.82-19.5.83T33,132.61a62.76,62.76,0,0,1-15.9-3.3,25.82,25.82,0,0,1-10.72-7Q2.4,117.84,2.4,110.34Zm43-48a7.12,7.12,0,0,0-.07-1,3.79,3.79,0,0,1,.07-1.27,26.52,26.52,0,0,0,.3-3.67,26.56,26.56,0,0,0-.3-3.68V50.19H30.3l-4.5-.3A32.34,32.34,0,0,0,22,49.81a19.45,19.45,0,0,0-3.37.38,24.1,24.1,0,0,0-.07,5q.22,2.47.38,5A10.94,10.94,0,0,0,19,62.49q.15.6,1.8.75a24.71,24.71,0,0,0,3.38.08q1.72-.07,3.38-.08H45.45Zm36.9,48a4.53,4.53,0,0,0-2.7-4,22.47,22.47,0,0,0-7-2.25,73.89,73.89,0,0,0-9.6-1q-5.33-.22-10.57-.23t-10.43.23a69,69,0,0,0-9.3,1,20.46,20.46,0,0,0-6.68,2.25,4.54,4.54,0,0,0-2.55,4q0,2.25,2.55,3.75a20.39,20.39,0,0,0,6.68,2.25,77.58,77.58,0,0,0,9.3,1.05q5.18.3,10.43.3H63.07a69.78,69.78,0,0,0,9.6-.6,19.15,19.15,0,0,0,7-2.17A5,5,0,0,0,82.35,110.34ZM99.9,26V41.19q.6,0,2.25.08l3.45.15q1.8.08,3.45.23t2.4.3a8.75,8.75,0,0,1,4.2,1.73,4.92,4.92,0,0,1,1.5,2.77,14.59,14.59,0,0,1,.45,3.83,7,7,0,0,1-.9,3.67,6.77,6.77,0,0,1-5.4,3.38q-3.6.38-8,.52H99.9V69.69q-.15,1.65-.45,3.38a11,11,0,0,1-1.2,3.38,8.2,8.2,0,0,1-2.55,3,8.3,8.3,0,0,1-5,1.5,7.68,7.68,0,0,1-4.2-1,7.41,7.41,0,0,1-2.4-2.25A15.19,15.19,0,0,1,82.72,75a14.16,14.16,0,0,1-.82-3.23V24.09a13.71,13.71,0,0,1,.15-3.3,13.35,13.35,0,0,1,1.2-4.5q1.5-3.15,6-3.6,5.55-.75,8.25,2.25a8.34,8.34,0,0,1,1.27,2.33q.37,1.13.68,2.32a13.08,13.08,0,0,1,.52,3.15A24.5,24.5,0,0,1,99.9,26Z"/><line class="cls-1" x1="211.41" y1="8.31" x2="211.41" y2="26.93"/><polyline class="cls-2" points="228.2 40.59 177.41 13.59 126.61 40.59"/><line class="cls-1" x1="160.19" y1="50.21" x2="129.46" y2="88.16"/><line class="cls-1" x1="146.81" y1="69.19" x2="146.81" y2="127.31"/><line class="cls-1" x1="193.68" y1="48.31" x2="164.56" y2="84.26"/><line class="cls-1" x1="184.76" y1="62.84" x2="223.46" y2="62.84"/><path class="cls-3" d="M223.1,62.84s-8.75,37.81-48.91,60.7"/><path class="cls-3" d="M174.69,74s7.34,25.59,47.69,49.59"/><line class="cls-4" x1="195.17" y1="77.77" x2="199.16" y2="81.26"/><rect class="cls-5" x="245.46" y="3.31" width="27" height="47.5"/><path class="cls-6" d="M272.69,50.81c.35.22.11-.07.07-.35Z"/><path class="cls-6" d="M272.76,50.46l.05-.25A.29.29,0,0,0,272.76,50.46Z"/><path class="cls-6" d="M273,48.17c.28.53-.11,1.15.32,1.48C273.58,49.12,273.48,48.3,273,48.17Z"/><polygon class="cls-6" points="272.73 48.96 272.96 49.03 272.6 48.57 272.73 48.96"/><polygon class="cls-6" points="272.51 49.29 272.6 49.23 272.36 48.51 272.51 49.29"/><path class="cls-6" d="M273.17,46.4l.06.53c-.32.49-.43-.33-.64,0,0,.66.67.23.56,1,.3-.07,0-1.32.47-1.18C273.77,46.1,273.35,46.76,273.17,46.4Z"/><path class="cls-6" d="M270.62,14.67l0-.07C270.62,14.63,270.58,14.66,270.62,14.67Z"/><path class="cls-6" d="M270.29,6.4a.45.45,0,0,0,.1-.15l-.13.09Z"/><path class="cls-6" d="M271.51,20.11a2.51,2.51,0,0,0-.12.34A.46.46,0,0,0,271.51,20.11Z"/><path class="cls-6" d="M244.71,14.84a.32.32,0,0,0-.14,0v0l.13.1Z"/><path class="cls-6" d="M265.41,6.21a1.84,1.84,0,0,0-.39,0A.73.73,0,0,0,265.41,6.21Z"/><path class="cls-6" d="M271.55,23.25v-.13a.9.9,0,0,0,0,.16l0,0Z"/><path class="cls-6" d="M269.65,8.82a1.16,1.16,0,0,0,.06-.31A1,1,0,0,0,269.65,8.82Z"/><path class="cls-6" d="M273.7,38.34a.5.5,0,0,0,0-.38C273.59,38,273.58,38.17,273.7,38.34Z"/><path class="cls-6" d="M273.65,35.23v0C273.71,35.23,273.7,35.22,273.65,35.23Z"/><path class="cls-6" d="M273.7,33.24v0S273.76,33.24,273.7,33.24Z"/><path class="cls-6" d="M273.66,38c.19-.26.79-.33.13-.67l-.09.07c.15-.2-.11-.49-.13-.72l-.16.08a4.53,4.53,0,0,1-.07.51C273.2,37.5,273.52,37.68,273.66,38Z"/><path class="cls-6" d="M270.74,14.7c-.12,0-.06.24,0,0Z"/><path class="cls-6" d="M271.24,17.38l0-.26A.47.47,0,0,0,271.24,17.38Z"/><path class="cls-6" d="M271.06,27.48l0,0C271,27.41,271,27.45,271.06,27.48Z"/><path class="cls-6" d="M271.26,16.88c0,.08,0,.16,0,.24A.34.34,0,0,0,271.26,16.88Z"/><path class="cls-6" d="M271.42,24.45l0,0A.07.07,0,0,0,271.42,24.45Z"/><path class="cls-6" d="M251,53.66c-.2.06-.32-.12-.52-.17-.43.44.89,0,.26.4a1.19,1.19,0,0,0,.48-.12l-.27-.41C250.58,53.52,251.21,53.5,251,53.66Z"/><path class="cls-6" d="M243.85,17.36l0-.09c-.19.06-.25,0-.35.34.29.28.71-.16,1,.34a.69.69,0,0,1,0-.37C244.34,17.78,244.07,17.58,243.85,17.36Z"/><path class="cls-6" d="M244.59,17.58h0l.1-.07a.48.48,0,0,1,0-.2A.55.55,0,0,0,244.59,17.58Z"/><path class="cls-6" d="M242.78,51.31l0-.43C242.74,51.12,242.74,51.24,242.78,51.31Z"/><path class="cls-6" d="M266,1l.27-.13A.39.39,0,0,0,266,1Z"/><path class="cls-6" d="M244.26,12.57a1,1,0,0,0,.06-.24l0-.15Z"/><path class="cls-6" d="M248.21,28.55c-.47-.17,0,.13-.23.47l.25.32A2.36,2.36,0,0,0,248.21,28.55Z"/><path class="cls-6" d="M251.25,53.8a.18.18,0,0,1,0,0h0Z"/><path class="cls-6" d="M248.31,37.94l-.06.15A.31.31,0,0,0,248.31,37.94Z"/><path class="cls-6" d="M244.79,15.7l0-1.21-.12.35C244.94,15,244.51,15.53,244.79,15.7Z"/><path class="cls-6" d="M248.48,23.4l.28-.11c-.6-1.2.26-2.58-.59-3.54,1-1.46-.89-1,0-2.3l-.14,0,.35-6.72c0-1.12.07-2.23.05-3.32l0-.81a.33.33,0,0,0,0-.12l-.14-.28.2.14,0,0,.22.07h1.47l4.68,0c3.12,0,6.23-.1,9.37,0,.62-.18.24-.62.77-.85.23,0,.75,0,.75.24-.45.13-.19.35-.35.45.74,0,1.7.26,2.36,0l-.55-.32a1.83,1.83,0,0,1,.89,0c-.1.16.24.51,0,.58,1.51-.79.88.34,1.07,0A2.62,2.62,0,0,1,270.73,5a1.06,1.06,0,0,1,.3.06l-.17.4c0-.34-.49.34-.46,0-.19.4.1.44,0,.76.17-.1.39-.17.47-.05-.09.26-.43.23-.46.51-.07-.18-.14-.14-.21-.21s-.11,0,0,.19a2,2,0,0,1,.17.42c-.28.09-.33.79-.64.66.38.63.17.85.41,1.52.3-.7.37.18.6.1l-.11-.79c-.19,1.11,0-.36-.53-.28.22-.52.79.72.71-.16a12.94,12.94,0,0,0,.43,2.34c-.09-.65.31.12.46-.22,0,.82-.17.2-.48.46,0,.45-.26.61.1,1-.14.72-.36-.11-.55.26-.33-.27.41-2-.65-1.82,0-.38-.41-.84-.39-1.38-.14.47-.48,1.15-.24,1.74l.59,0c0,.45.42.54.36.86-.17-.17-.42.14-.37.5.08-.1.06-.25.17-.21,0,.66.45.76.56,1.55a6.88,6.88,0,0,1,.59-1.4c.42.16.06.43.11.79-.06-.05-.07-.13-.15,0l.2.38c-.18.81-.6-.1-.8.57-.35.46.2.63,0,1l.11-.07a.94.94,0,0,1,0,.18h0c.06.43,0,.89.34,1-.14,0,0,.38.14.52s.49.82,0,1.18c0,0,0,0,0,0-.06.54-.22,1-.38.84l-.12.87-.4-.09c.11.79.35.71.76,1.25a3.17,3.17,0,0,0,.1,1.93.87.87,0,0,0,0,.31l.16-.33c0,.62.2.54.2.95,0-.08.06-.1,0,.13l0,.23s0-.11,0-.2l-.14.07c-.43.49.24.76.09,1.28a.64.64,0,0,1,0-.19c-.11.3-.68.72-.33.84,0,.07,0,.17.11.27l-.06.22a1.37,1.37,0,0,1,.06-.22c.12.14.26.26.17.28l-.07.76a.75.75,0,0,0,0,.5l-.17.13c0,.28-.07.28-.12.25-.58,1,.3,1.48-.21,2.52.28.2.41-.23.56-.26a4,4,0,0,1,.56,1.05c-.39.46-.73,1.88-1.29,1.65,0,.85.34-.27.54.16l0,.1a1.22,1.22,0,0,1,.47-.69c.3-.06.39.69.3.92l-.43-.16c.15.79.79.62,1.22,1.11-.17.63-.56.27-.94.4l.11.66h-.32c.09.43.39.53.26,1.12-.3-.43-.3.89-.71.3-.11.33.52.42.09.59.34.23.17-.3.28-.46.49-.13.24.72.37,1.12-.26,0-.3-.26-.47.2a.41.41,0,0,1,.11.65c.32,0,.06.53,0,.79.06-.3.3-.72.58-.53a1.42,1.42,0,0,1,.15,1l.15-.36c.47.46-.34.76-.19,1.38-.19-.26-.19-.43-.43-.66a10.69,10.69,0,0,1,.54,1.32l-.47.53c.24.07,0,.59.3.59-.22.66-.39-.53-.62-.59-.21.82.54.66,0,1.45l-.3-.26c0,.26.15.79,0,.82.11,0,.06-.13.06-.3.64.16.45,1.21,1.12,1.12l0-.36c.13.56.58,1,.35,1.38s-.45-.23-.62-.43c0,.52.73.43.67,1.05.11-.33.34-.27.52-.07,0-.36.17-1.12-.11-1l-.06.13c-.17,0-.24-.23-.32-.33,0-.49.3-.23.43-.33.11-.82-.67-.07-.64-.82l.13-.1c-.17-.36-.2-.92-.6-1,.43-.33-.17-.85.09-1.21.94-.07-.06,1.28.45,1.71.19-.39.45.23.67.39l-.41-1.25c.13-.1.6-.46.26-.69l0,.1c-.11-.49-.49-.36-.37-.79.09-.07.24.07.3.1.09-.39-.21-.33-.3-.59.08-.39.39.2.49-.13-.36-.46.09-.72.06-1.12-.54.17-.73-1.58-1.2-.72l-.37-1c.28-.3.75.65,1.2.39l0,.76c.67-.13-.44-1.59.31-2.09a1.85,1.85,0,0,1,.27-1.07l-.6.13a.81.81,0,0,1,.57-.54,2.27,2.27,0,0,1,0-.66.43.43,0,0,1,.2.28c.33-.3.21-.39,0-.49a.91.91,0,0,1-.12-.66l.22.22c0-.15-.11-.34-.22-.35a.84.84,0,0,0-.05-.29,1.35,1.35,0,0,0-.61.59,7.48,7.48,0,0,1,.6-2.43c.17,0,.39.36.41.26.09-.39-.21-.82-.47-.79a1.36,1.36,0,0,1,0-.22c.15-.08.31-.17.33-.36a.36.36,0,0,0,.12-.25c-.47-.13-.24-.89-.45-1.05a1.92,1.92,0,0,0,0,.62c-.32-.32-.68-.6-.42-.85.3.59.49-.63.62.26.6-.62-.43-.33-.22-1l.24-.43c.34.07.17.69.3.59l0-.3c.26.3.09,1.42.47,2.1l.19-1.38c-.41-1.74.06-3.91-.69-5.39v.06a.59.59,0,0,0-.23-.06l.09-.07-.26-.29c.32-.33.39-1,.64-1.48-.21.33-.21.33-.47.37s-.49-.12-.36-.61c.24,0,.24.3.43-.06-.12.19-.29,0-.32-.19.16-.28.19-.74.44-.75.07.13,0,.23-.05.32s.22-.52.42-.14l-.07-.5c.2-.29.32.19.45.08-.17-.84-.73-1.26-.9-2a3.11,3.11,0,0,0,.52,0c.16-.58-.59-1.25-.64-1.91.16.1.1.34.18.55a32.43,32.43,0,0,1,.74-5.58l-.56-.49.37-.5a10.56,10.56,0,0,0,.11-2.75l-.06-.66-.07-1.05-.15-2.1c0-.89.39-.83.55-1.43a8.1,8.1,0,0,0,0-1.07c-1.53.13-2.48.56-4,.66.3-.17,1-.65.1-.68a.94.94,0,0,1-.91.32l.31-.17c-.43-.25-1.2,0-1.7-.12a5.76,5.76,0,0,0-3.12,1c-1-.06.1-.6-.09-.72.7.21.49-.1.64-.29-.37.16-.82.26-1-.14a2.35,2.35,0,0,0-1.26.28c.26-.14.48.08.24.26-.42-.14-1.5,0-1.44-.49-2.45.1-5.19,0-7.81,0-.44.26.34.1.09.28-.64.34-.51-.17-1,.09L254,1a6.91,6.91,0,0,0-2.32.72c.12-.31-.61-.26,0-.44-.36.05-.8-1.34-1.08-1.05l.41,1.3c0,.13-.53,0-.48.13a2.27,2.27,0,0,0-.93-.55c-.11-.33.44-.26.75-.25,0-.55-1-.35-.58-.85-.65.09.09.28-.29.48l-.56-.12.44.18a4.47,4.47,0,0,0-.57.31,2,2,0,0,1-1.18,0q-.52.27-.93.53c-.28-.43-.81-.08-1.41-.18l.19-.28a5.5,5.5,0,0,1-1.74-.22c.15-.38.8.09.73-.27l-1-.13c.2.24-.18.44.56.58a3.35,3.35,0,0,1-.46.52,6.53,6.53,0,0,1,.28,2.19c-.42.56-.37-1.1-.78-1.07a4.22,4.22,0,0,0,.47,2.33c.29.58.59,1,.57,1.45a2.77,2.77,0,0,0,0,.61,1.27,1.27,0,0,0,.08.34,2.23,2.23,0,0,1,.2.87c-.28-.28-.3.63-.58.79l-.3-.35c.09.27,0,.53-.23.45.39-.05.36,1.16.54,1.78l.33-.11a4.81,4.81,0,0,1,.23,1.66c.11.76.4.59.75,1.17a.88.88,0,0,1-1,.18c.17-.2.07-.55.17-.88-.28-1-1-1.71-.82-2.67-.8-.42.09.65-.19,1.11a.1.1,0,0,1-.07-.08.29.29,0,0,1,0,.12c-.1-.34-.22-.9-.63-1,.08.57.79.42.45,1.13.22.53-.4,1-.46,1.28.3.35.94.37.81,1.24l-.45-.38c0,1,.65.46.63,1.37.05-.32.44.31.45-.3a1.91,1.91,0,0,1,.15,1.45c.07.13.15,0,.3.05.31-.55-.3-.86.14-1.31l-.48-.38c.17-.51.56-.56.75-.25,0-.14-.09-.27,0-.37.72-.09-.26.61.36.79l-.05-.36c.47-.16.41.84.38,1.3-.22.52-.3,1-.64,1l-.15-.7c-.27.36.16.9.15,1.31a.27.27,0,0,0-.11.11.16.16,0,0,1,.09,0,.38.38,0,0,1-.14.23c0,.36.19.89.08,1.22l.3,0-.17,0c0-.33.2-.77.43-.53.21.74-.37.89-.64,1.07-.47-.17,0-.72-.15-1.1-.46.23,0,.75-.35,1.52-.51-.31,0-.89-.46-1.06-.09.62.27.78.14,1.43-.23-.08-.26-.72-.56-.67l-.14.42c0-1-.63.18-.75-.62-.21.38.41.53.09,1.06.22-.15.62-.58.82-.06l-.15.58c-.24.24-.54-.6-.74-.23l.17.61c.15,0,.23-.31.43-.13-.16.35.58.57.8,1,0,.33,0,.59-.22.71.45.83.43,1.88.85,2.64-.3-.52-.52,0-.74.33-.06-.6-.54-.6-.84-.56.05.37.54.6.7.42-.19.61.33.42,0,1-.16.35-.47-.17-.64-.05,0,.66.57.18.46.89-.06,0-.08-.1-.17,0a.79.79,0,0,0,.36.88c-.62.41.07,1.16-.53,1.08.16.93.33-.14.54,0a1.62,1.62,0,0,1,0,1.31c0-.23-.18-.44-.08-.66l-.42.2c-.3,1.16.94.74.58,1.86-.22-.58-.32-.19-.61-.48.1.17,0,1.05.31.52a5.41,5.41,0,0,1-.19,1,2.52,2.52,0,0,0,.55,1,2.73,2.73,0,0,1-.52,1.31c.3,1.24-.21,2.39.11,3.69l0-.1c-.08,1,.55-.45.54.61-.51-.14-.34.63-.61,1-.26,1.29.37,2.24,0,3.43-.11,0-.23-.09-.25-.32A15.56,15.56,0,0,0,243,46l-.06,0a3.55,3.55,0,0,0-.16,1,4.74,4.74,0,0,0,0,.48l.05.78c.09,1.14.24,2.19.3,3.31-.06-.14-.26-.07-.32-.18a20,20,0,0,0-.08,2.26,6.77,6.77,0,0,0,2.18-.36,1.75,1.75,0,0,0,1.14.17,3.32,3.32,0,0,1,1.53.16c.09.09-.21.08-.34.1a8.75,8.75,0,0,0,1.29.13l.46,0,.37,0c1.15-.32,1.43-1,2.77-.78.07.69-.82.17-.85.72a.9.9,0,0,1,.86-.1c-.22.27,0,.17-.2.42.28.18,1.13-.72,1.13-.66,0-.13-.08-.21-.34-.19.31-.43,1.31,0,2-.21-.21,0-.87-.15-.62-.47.87.15,1.16-.52,1.76-.8.8.31-.59.58-.44,1.07.13.18.45.56.12.75.72.1,1.24-.31,1.88-.42l0,.14c.89-.06,1.85-.66,2.6-.38l-.4-.16c.15-.08.6,0,.85-.32,0,.23.56.43.32.62.4-.73,2-.44,2.48-1.14.24.18,0,.48,0,.65-.56-.06-.76-.21-1.05.08.47,0,.81.18.74.34.47-.45,1.59-.63,1.83-1.09.34.23.67.35.55.73,1.44-.24-.71-1.17.92-1.16.74.37-.72.5.3.62l-.19.06c.74,1,.52-.7,1.36-.66.11.53-.58.38,0,.76.77-.13,1.1-.92,1.87-.75l-.12.23c.49,0,1.44.07,1.93,0,0,.1,0,.09-.14.12.9.2.38-.27,1.12.1l.21-.26a1.75,1.75,0,0,0-1.56-.14c.47-.3-.74-.67-.5-1.13l-.09.18c-1.23-.78-2.81-.88-4.36-1.17-1,.54-1.67-.22-2.72.16-.16.62-.2.12-1.1.25.48-.08.06-.47-.25-.56a1.36,1.36,0,0,1-.61.28c-.18-.21-1.32-.71-1.74-.29-.55-.2.13-.2.25-.33-.22-.32-.45.25-.63,0a.14.14,0,0,1,.07-.1,16.73,16.73,0,0,1-2.22-.21c-.07.61-.86.23-1.25.45.13-.2-.49-.23-.74-.34l-.47.45c-.46.39-.65-.27-1.25-.06l.15.11a3,3,0,0,1-2-.51,9.88,9.88,0,0,1-1.65.34,7.66,7.66,0,0,1-1.24.05,1.83,1.83,0,0,1-1-.38l.33-1a1.53,1.53,0,0,0,.07-.35c0-.41,0-.84,0-1.29-.18-.28-.31.2-.58,0a4.84,4.84,0,0,1-.05-.93c-.16.35,0,.29-.13.25l.17.61s-.06,0-.15,0a1.77,1.77,0,0,1,.15.7c-.16-.37-.61-.48-.44-1,.06,0,.08.11.12.24,0-.42-.18-.44-.06-.76s0-.29.16-.34l.24-1.21c-.54-.6,0-1.34,0-1.54.4.13.12.8.52,1.1l.29-.43-.32,0,.09-.62.06,0c-.13-.07-.25-.15-.14-.31s.13-.09.15,0l-.18-.44c.33.26.1-.39.48-.32.19-1.44-.52-1.83,0-3.1-.18.21-.61-.4-.54-.79.09-.23.18-.28.33-.14l-.2-.51c.6-.64.21-1.27.42-2.2l.17,0a1.89,1.89,0,0,1-.3-1.25l.34.1c.24-.64-.71-.49-.5-1.19-.36,0-.55.45-.9.52.37-.17.43-.92.16-.75-.15-.7,0-.49.1-.55l-.22-.41c0-.49.48-.16.69,0-.39-.46-.12-1-.05-1.49l.16.21L248,29a2.15,2.15,0,0,1-.16-1.66l.48.4c.25-.41-.17-.21-.25-.32-.23-.64.09-.78.36-1.12C247.91,25.3,249.2,24.28,248.48,23.4Zm22.81,3.83.07-.1C271.45,27.35,271.53,27.47,271.29,27.23Zm.14-5.66c.19.68,0,.47-.17.52.13-.67,0-1,.14-1.64a.74.74,0,0,1-.3.14.6.6,0,0,1,.37-.55C271.94,20.34,271.15,21.87,271.43,21.57Zm2.38,12.74-.11-.08h0Zm-.43-3.37a.39.39,0,0,0,.2-.23C273.45,30.77,273.34,30.83,273.38,30.94Zm.59-6.71c.2-.16.14-.51.09-.77A3.69,3.69,0,0,0,274,24.23ZM251,2c.2-.08.59-.28.24-.43-.17.17-.49-.13-.63.14l0,0A2.13,2.13,0,0,0,251,2ZM245.8,17.63c-.2,0-.41-.19-.56-.09l0-.06c-.07.05-.12.09-.17.05a.73.73,0,0,0,0,.45C245.7,18,245.81,18.38,245.8,17.63Z"/><path class="cls-6" d="M243.15,11c0,.08,0,.14,0,.19A1.46,1.46,0,0,0,243.15,11Z"/><path class="cls-6" d="M245.06,17.95s.1-.18.18-.41C245.16,17.58,245.09,17.7,245.06,17.95Z"/><path class="cls-6" d="M271.63,45.28l-.06-.2-.19.39a1.15,1.15,0,0,0,.82.85c-.3-.59-.15-1-.24-1.71Z"/><path class="cls-6" d="M273.77,44.95c.09-.07.3-.23.32-.33l-.2-.1Z"/><path class="cls-6" d="M274.71,37.15l-.17.62C274.71,38,275,37.25,274.71,37.15Z"/><path class="cls-6" d="M271.32,39.92l.22.33c.17-.3.15-.69-.09-.76C271.58,39.89,271.32,39.59,271.32,39.92Z"/><path class="cls-6" d="M274.76,35.47c-.39-.19.17-.63-.19-.75C274.67,34.88,274.37,35.44,274.76,35.47Z"/><path class="cls-6" d="M271.08,35.91c-.37.2,0,.53-.13.92C271,36.5,271.34,36,271.08,35.91Z"/><path class="cls-6" d="M273.66,32.12c.28,0,.26.3.19.59-.09-.1-.21-.16-.26-.3a6.07,6.07,0,0,1,.3.92c.19-.39.32-1,.66-.92C274.3,32.12,273.91,31.76,273.66,32.12Z"/><path class="cls-6" d="M271,35c-.11.33-.36.53-.34.92a.56.56,0,0,0,.43-.66l.32.16C271.68,35,271,35.55,271,35Z"/><path class="cls-6" d="M274.41,30.31l-.15.2c.26.46.13,1.05.54,1.31A3.39,3.39,0,0,0,274.41,30.31Z"/><path class="cls-6" d="M271.63,33.34l-.45-.06c-.06.46.15,0,.26.13-.06.13-.11.33,0,.43C271.36,33.31,271.79,33.8,271.63,33.34Z"/><path class="cls-6" d="M271.14,31.83l-.19-.59-.49.46C270.62,32.4,270.73,31.74,271.14,31.83Z"/><path class="cls-6" d="M271.44,31.11l.09-.07-.67-.88A3.32,3.32,0,0,0,271.44,31.11Z"/><path class="cls-6" d="M274.37,20.38c-.19-.1-.43.42-.22.2C274.31,20.68,274.56,20,274.37,20.38Z"/><path class="cls-6" d="M270.76,22.5c.15-.25-.13-1.08-.26-1.44C270.59,21.49,270.5,22.56,270.76,22.5Z"/><path class="cls-6" d="M270.44,20.91l.05.15A.41.41,0,0,0,270.44,20.91Z"/><path class="cls-6" d="M269.45,6.53h0Z"/><path class="cls-6" d="M269.56,6.54s0,0,0,.06.13.27.23.29l-.07-.28-.07,0a.44.44,0,0,0-.23,0S269.33,6.58,269.56,6.54Z"/><path class="cls-6" d="M269.55,6.1c.13-.12.12-.06.28-.25S269.62,6,269.55,6.1Z"/><path class="cls-6" d="M247.75.47c-.65-.1-1,0-.75.26C247.67.72,247.26.55,247.75.47Z"/><polygon class="cls-6" points="246.26 0.78 246.12 0.64 245.61 0.43 246.26 0.78"/><path class="cls-6" d="M242.53,1.18a1.32,1.32,0,0,1-.12-.37C242.44,1.1,242.48,1.34,242.53,1.18Z"/><path class="cls-6" d="M242.39.67l0,.14Z"/><path class="cls-6" d="M242.48.46l-.15-.2c0,.09,0,.25.06.4C242.38.54,242.4.43,242.48.46Z"/><path class="cls-6" d="M242.48,2.46a5.81,5.81,0,0,1,.43-.5c-.21-1-.22.8-.68-.4Z"/><path class="cls-6" d="M242.6,5.41a3.36,3.36,0,0,0,.15,1.26c.09.23.13.45-.12.57.27,1.19.85-.28,1,1.09.13-.65-.11-.81-.36-1a.83.83,0,0,1-.31-.26.51.51,0,0,1-.07-.23.9.9,0,0,1,0-.16l0-.26c0,.13-.07.19-.1.21s-.05,0-.07,0-.07-.05-.08-.25A9.17,9.17,0,0,0,242.6,5.41Z"/><path class="cls-6" d="M243.45,5.25c-.25-.19-.28.73-.11,1C243.37,6,243.72,5.64,243.45,5.25Z"/><polygon class="cls-6" points="242.82 8.3 242.63 8.67 242.79 8.76 242.82 8.3"/><path class="cls-6" d="M242.72,9.69l-.29-.36C242.54,9.45,242.52,10,242.72,9.69Z"/><path class="cls-6" d="M242.36,11.61c-.1.33.58.64.43-.07l0,.16C242.66,11.67,242.42,12,242.36,11.61Z"/><path class="cls-6" d="M243.42,16.08c0-.23-.07-.5-.21-.45l.14.63Z"/><path class="cls-6" d="M245.08,16c.41-.21,0-.59.1-1A2.76,2.76,0,0,0,245.08,16Z"/><path class="cls-6" d="M242.84,16.8c-.17-.17-.06-.43,0-.59C242.57,16.28,242.63,16.72,242.84,16.8Z"/><path class="cls-6" d="M243,17.8c-.17.21-.23,0-.35.11a1.12,1.12,0,0,0,.07,1.16c.18-.12.65-.28.86-.09-.15-.71-.91-1.07-.32-1.41l-.72-.59C242.4,17.54,243,17.41,243,17.8Z"/><path class="cls-6" d="M244.35,16.37l-.24.38c.23-.08.28.21.35.41C245,17.07,244.38,16.59,244.35,16.37Z"/><polygon class="cls-6" points="243.3 21.72 243.42 22.52 243.45 22.26 243.3 21.72"/><polygon class="cls-6" points="243.13 22.23 242.97 22.25 243.25 22.87 243.13 22.23"/><polygon class="cls-6" points="242.95 23.07 242.97 22.98 242.84 22.51 242.95 23.07"/><path class="cls-6" d="M242.84,24.75l.22-.15c-.06-.2.19-.61-.11-.57A.67.67,0,0,1,242.84,24.75Z"/><path class="cls-6" d="M248.49,30.29c-.15-.15-.28-.06-.41,0l.38.23C248.44,30.48,248.4,30.34,248.49,30.29Z"/><path class="cls-6" d="M247.88,31.26l.43.6c.07-.69-.27-.78-.34-1.38-.14.25.17.61.05.93Z"/><path class="cls-6" d="M247.55,43.18c-.28-.05-.24.08-.42-.36a8.13,8.13,0,0,1,.15,1.82c.17-.12.48.4.4.13l-.17-.77.19.12C247.92,43.57,247.4,43.76,247.55,43.18Z"/><path class="cls-6" d="M269,51.66c-.07.13,0,.26.11.38C269.57,51.89,268.9,51.69,269,51.66Z"/><path class="cls-7" d="M252.33,18.08V10.64h2.1v1.92h2.87V10.64h2.1v7.44Zm.45,4a2.6,2.6,0,0,1,.21-1,2.67,2.67,0,0,1,1.42-1.42,2.62,2.62,0,0,1,1-.21h6.1a2.62,2.62,0,0,1,1,.21A2.66,2.66,0,0,1,264,21a2.69,2.69,0,0,1,0,2.08,2.66,2.66,0,0,1-1.42,1.42,2.62,2.62,0,0,1-1,.21h-6.1a2.62,2.62,0,0,1-1-.21A2.66,2.66,0,0,1,253,23.13,2.59,2.59,0,0,1,252.79,22.09Zm4.51-5.88V14.39h-2.87v1.81Zm-2.49,5.88a.85.85,0,0,0,.19.54.59.59,0,0,0,.49.24h6a.59.59,0,0,0,.49-.24.87.87,0,0,0,0-1.08.59.59,0,0,0-.49-.24h-6a.59.59,0,0,0-.49.24A.85.85,0,0,0,254.81,22.09Zm7-3.78V10.57h2.1v2.51h1.53v2h-1.53v3.19Z"/><path class="cls-7" d="M256,28.57a3.75,3.75,0,0,1,1.44.28,3.68,3.68,0,0,1,1.18.77,3.63,3.63,0,0,1,.79,1.15,3.43,3.43,0,0,1,.29,1.41v7a3.43,3.43,0,0,1-.29,1.41,3.64,3.64,0,0,1-.79,1.15,3.69,3.69,0,0,1-1.18.76,3.87,3.87,0,0,1-2.88,0,3.6,3.6,0,0,1-1.17-.76,3.68,3.68,0,0,1-.79-1.15,3.43,3.43,0,0,1-.29-1.41v-7a3.43,3.43,0,0,1,.29-1.41,3.68,3.68,0,0,1,.79-1.15,3.59,3.59,0,0,1,1.17-.77A3.75,3.75,0,0,1,256,28.57Zm0,2.09a1.54,1.54,0,0,0-.6.12,1.69,1.69,0,0,0-.5.32,1.41,1.41,0,0,0-.34.48,1.47,1.47,0,0,0-.12.59v7a1.42,1.42,0,0,0,.46,1.06,1.7,1.7,0,0,0,.5.32,1.53,1.53,0,0,0,.6.12,1.56,1.56,0,0,0,.61-.12,1.6,1.6,0,0,0,.5-.32,1.5,1.5,0,0,0,.33-.47,1.42,1.42,0,0,0,.12-.58v-7a1.49,1.49,0,0,0-.45-1.07,1.59,1.59,0,0,0-.5-.32A1.57,1.57,0,0,0,256,30.65Zm5.79,12.1V28.57h2.11v2.61h1.53v2h-1.53v2.35h1.53v2h-1.53v5.15Z"/></g></g></svg>